<svg xmlns="http://www.w3.org/2000/svg" viewBox="0 0 349.65 354.43"><title>circle</title><g id="Layer_2" data-name="Layer 2"><g id="Layer_17" data-name="Layer 17"><path d="M174.93,174.47V0S241.42-2.82,299,52.14Z" style="fill:#c1b9dc"/><text transform="translate(184.32 57.83)" style="font-size:18px;fill:#fff;font-family:Helvetica-Bold, Helvetica;font-weight:700;letter-spacing:0.044976128472222224em">rice and <tspan x="6.81" y="21.6">kimchi</tspan></text></g><g id="Layer_18" data-name="Layer 18"><path d="M349.56,175.36H174.93L299,52.14S349.56,98.24,349.56,175.36Z" style="fill:#cfecf5"/><text transform="translate(228.01 153.1)" style="font-size:18px;fill:#fff;font-family:Helvetica-Bold, Helvetica;font-weight:700;letter-spacing:0.044976128472222224em">typography</text></g><g id="Layer_19" data-name="Layer 19"><path d="M299,300.35l-124.11-125H349.56S354,249.82,299,300.35Z" style="fill:#8d9ebf"/><text transform="translate(236.77 205.22)" style="font-size:18px;fill:#fff;font-family:Helvetica-Bold, Helvetica;font-weight:700;letter-spacing:0.044976128472222224em">Miracle in <tspan x="3.41" y="21.6">Cell No. 7</tspan></text></g><g id="Layer_20" data-name="Layer 20"><path d="M173.16,354.43l1.77-179.07L299,300.35S262.69,349.11,173.16,354.43Z" style="fill:#6e9ba5"/><text transform="translate(187.51 278.66)" style="font-size:18px;fill:#f9ed32;font-family:Helvetica-Bold, Helvetica;font-weight:700;letter-spacing:0.044976128472222224em">yellow</text></g><g id="Layer_21" data-name="Layer 21"><path d="M49.05,299.46l125.88-124.1-1.77,179.07S96,353.54,49.05,299.46Z" style="fill:#96bbcc"/><text transform="translate(110.25 291.14)" style="font-size:18px;fill:#fff;font-family:Helvetica-Bold, Helvetica;font-weight:700;letter-spacing:0.044976128472222224em">???</text></g><g id="Layer_22" data-name="Layer 22"><path d="M.3,175.36H174.93L49.05,299.46S-4.15,245,.3,175.36Z" style="fill:#94b7c3"/><text transform="translate(9.35 197.53)" style="font-size:16px;fill:#fff;font-family:Helvetica-Bold, Helvetica;font-weight:700;letter-spacing:0.045013427734375em">The <tspan x="35.77" y="0" style="letter-spacing:-0.00970458984375em">V</tspan><tspan x="46.29" y="0" style="letter-spacing:0.0450439453125em">ery Hungry </tspan><tspan x="0" y="19.2">Caterpillar</tspan></text></g><g id="Layer_23" data-name="Layer 23"><path d="M52.6,51.25,174.93,175.36H.3S-7.15,107.72,52.6,51.25" style="fill:#b0c1d8"/><text transform="translate(26.18 149.42)" style="font-size:18px;fill:#fff;font-family:Helvetica-Bold, Helvetica;font-weight:700;letter-spacing:0.044976128472222224em">The Office</text></g><g id="Layer_24" data-name="Layer 24"><path d="M52.6,51.25,174.93,175.36V0S97.81,2.5,52.6,51.25" style="fill:#afb9de"/><text transform="translate(76.75 51.61)" style="font-size:16px;fill:#fff;font-family:Helvetica-Bold, Helvetica;font-weight:700;letter-spacing:0.04498291015625em">everything <tspan x="8.82" y="19.2">(rn odie)</tspan></text></g></g></svg>